<svg version="1.1" id="Capa_1" xmlns="http://www.w3.org/2000/svg" x="0" y="0" viewBox="-16 -155 496 496" xml:space="preserve"><g class="nc-icon-wrapper"><path class="st0" d="M320 73h-64c-4.42 0-8 3.58-8 8v48h80V81c0-4.42-3.58-8-8-8zM120 25v32h16c13.26 0 24 10.74 24 24v80c0 13.26-10.74 24-24 24h-16v40H80c-8.84 0-16-7.16-16-16V41c0-8.84 7.16-16 16-16h40z" fill="#D81324"/><path class="st1" d="M472.11 64.96L470.76 57h-56.22l1.79 10.62c3.74 22.47 6.12 45.78 7.08 69.38H392V57c0-13.23-10.77-24-24-24h-16c-4.42 0-8-3.59-8-8V9c0-13.23-10.77-24-24-24h-64v-24h96v-48H112v48h96v24h-54.11c-9.15 0-17.38 5.08-21.47 13.26l-7.16 14.31a7.934 7.934 0 0 1-7.14 4.42H80c-13.23 0-24 10.77-24 24v56H32V33h-48v176h48v-64h24v64c0 13.23 10.77 24 24 24h41.38c2.1 0 4.17.86 5.66 2.34l30.62 30.62c4.53 4.54 10.56 7.03 16.97 7.03H368c13.23 0 24-10.77 24-24v-64h31.41c-.81 18.66-2.5 37.17-5.08 55.11l-3.55 24.9h56.17l3.23-22.62c3.86-27.08 5.82-54.68 5.82-82.03 0-31.87-2.66-63.96-7.89-95.39zM200 153v-16h176v16H200zm16 72v32h-16v-88h16v40h16v-40h16v88h-16v-32h-16zm48-56h16v88h-16v-88zm32 0h16v88h-16v-88zM328 9v16c0 13.23 10.77 24 24 24h16c4.42 0 8 3.59 8 8v64H200V49h112V33H200V1h120c4.42 0 8 3.59 8 8zM128-55v-16h208v16h-96v40h-16v-40h-96zM16 129v64H0V49h16v64h40v16H16zm152.97 125.66l-30.62-30.62c-4.53-4.54-10.56-7.03-16.97-7.03H80c-4.42 0-8-3.59-8-8V41c0-4.41 3.58-8 8-8h38.11c9.15 0 17.38-5.08 21.47-13.26l7.16-14.31A7.947 7.947 0 0 1 153.89 1H184v256h-9.38c-2.1 0-4.16-.86-5.65-2.34zM368 257h-8v-56h-16v56h-16v-88h16v16h16v-16h16v80c0 4.41-3.58 8-8 8zm90.33-16.89l-1.26 8.89h-23.83l.94-6.62c3.02-21.17 4.88-43.09 5.53-65.14l.23-8.23H392v-16h47.9l-.22-8.22c-.65-24.35-2.77-48.46-6.3-71.78h23.82c4.51 28.82 6.8 58.18 6.8 87.34 0 26.59-1.9 53.43-5.67 79.76z" fill="#0B2154"/><path class="st1" d="M104 113h16v16h-16zM216 89h16v16h-16zM344 89h16v16h-16z" fill="#0B2154"/></g></svg>