<svg version="1.1" id="Layer_1" xmlns="http://www.w3.org/2000/svg" x="0" y="0" viewBox="-16 -155 496 496" xml:space="preserve"><g class="nc-icon-wrapper"><path class="st0" d="M154.25 93h-24c-8.82 0-16-7.18-16-16V45h56v32c0 8.82-7.18 16-16 16zM274.25 93h-24c-8.82 0-16-7.18-16-16V45h56v32c0 8.82-7.18 16-16 16zM202.25 333c-35.29 0-64-28.71-64-64s28.71-64 64-64 64 28.71 64 64-28.71 64-64 64z" fill="#D81324"/><path class="st1" d="M122.25 13h16v16h-16V13zM266.25 13h16v16h-16V13z" fill="#0B2154"/><path class="st1" d="M450.01 8.7l-39.76-9.94v-9.95c9.66-7.31 16-18.79 16-31.79v-16h24v-16h-24c0-19.31-13.77-35.47-32-39.19V-131c0-13.23-10.77-24-24-24s-24 10.77-24 24v88c0 13.02 6.35 24.49 16 31.79v9.95l-39.76 9.95c-3.32.83-6.37 2.2-9.15 3.93-1.24-5.8-3.83-11.06-7.29-15.63h.2c13.23 0 24-10.77 24-24s-10.77-24-24-24h-16.6l-3.95-21.73C282.93-87.95 269.7-99 254.21-99H150.28c-15.48 0-28.71 11.05-31.49 26.27L114.85-51h-16.6c-13.23 0-24 10.77-24 24s10.77 24 24 24h.21c-5.08 6.7-8.21 14.96-8.21 24v24c0 8.82 7.18 16 16 16h192v16h-240v-208c0-13.23-10.77-24-24-24s-24 10.77-24 24v424H-4l-12 48H84.5l-12-48H58.25V141h272v200h112V117h16c8.82 0 16-7.18 16-16V39.74c0-14.71-9.97-27.48-24.24-31.04zM410.25-43c0 13.23-10.77 24-24 24s-24-10.77-24-24v-16h48v16zm0-32h-48c0-13.23 10.77-24 24-24s24 10.77 24 24zm-40-64c4.41 0 8 3.59 8 8v16.81c-5.94 1.21-11.32 3.86-16 7.39V-131c0-4.41 3.59-8 8-8zm-64 104c4.41 0 8 3.59 8 8s-3.59 8-8 8h-10.77l-2.91-16h13.68zM134.54-69.86A16 16 0 0 1 150.29-83h103.93c7.74 0 14.36 5.52 15.75 13.14l9.34 51.38c-1.68-.21-3.33-.51-5.06-.51h-144c-1.73 0-3.38.3-5.05.51l9.34-51.38zM248-3l-12 48h-67.5l-12-48H248zM90.25-27c0-4.41 3.59-8 8-8h13.69l-2.91 16H98.25c-4.41 0-8-3.59-8-8zm16 48c0-13.23 10.77-24 24-24H140l12 48h-45.75V21zM252.5 45l12-48h9.75c13.23 0 24 10.77 24 24l.01 18.63c0 .04-.01.07-.01.1V45H252.5zM64 325H4.5l4-16H60l4 16zm-37.75-32v-424c0-4.41 3.59-8 8-8s8 3.59 8 8v424h-16zm32-168V93h240v8c0 8.82 7.18 16 16 16h16v8h-272zm288 32h32v168h-32V157zm48 168V157h32v168h-32zm32-184h-80v-24h24c6.17 0 11.75-2.41 16-6.24 4.26 3.84 9.83 6.24 16 6.24h24v24zm-32-70.53a23.848 23.848 0 0 0-8 4.77c-2.31-2.09-5.01-3.7-8-4.77V53h16v17.47zm64 30.53h-56c-4.41 0-8-3.59-8-8s3.59-8 8-8h40V37h-16v32h-16V37h-48v32h-16V37h-16v48h40c4.41 0 8 3.59 8 8s-3.59 8-8 8h-56V39.74c0-7.36 4.98-13.74 12.12-15.53l51.88-12.97V-3.81a39.906 39.906 0 0 0 16 0v15.05l51.88 12.96a15.994 15.994 0 0 1 12.12 15.54V101z" fill="#0B2154"/><path class="st1" d="M236.59 263.34l11.31 11.31 10.34-10.34V269c0 30.87-25.12 56-56 56s-56-25.13-56-56 25.12-56 56-56v-16c-39.7 0-72 32.3-72 72s32.3 72 72 72 72-32.3 72-72v-4.69l10.35 10.34 11.31-11.31-29.66-29.66-29.65 29.66z" fill="#0B2154"/><path class="st1" d="M194.25 265.69l-18.34-18.34-11.31 11.31 29.65 29.66L295.9 186.66l-11.31-11.31-90.34 90.34z" fill="#0B2154"/></g></svg>