<svg version="1.1" id="Capa_1" xmlns="http://www.w3.org/2000/svg" x="0" y="0" viewBox="-16 -155 496 496" xml:space="preserve"><g class="nc-icon-wrapper"><path class="st0" d="M408-27H216c-4.42 0-8-3.58-8-8v-80c0-4.42 3.58-8 8-8h192c4.42 0 8 3.58 8 8v80c0 4.42-3.58 8-8 8z" fill="#D81324"/><path class="st1" d="M176-155v360c0 17.65 14.35 32 32 32h40v24h15.19c-3.72 18.23-19.87 32-39.19 32h-64c-22.06 0-40-17.94-40-40V13h-16v240c0 30.88 25.12 56 56 56h64c28.15 0 51.46-20.9 55.36-48H296v-24h32v24h16v8c0 30.88-25.12 56-56 56H104c-30.88 0-56-25.12-56-56V13H32v256c0 39.7 32.3 72 72 72h184c39.7 0 72-32.3 72-72v-8h16v-80h-48v40h-32v-40h-48v40h-16V12.69c0-7.33-3.28-14.16-9.01-18.74l-27.98-22.38a7.979 7.979 0 0 1-3.01-6.25V-139h240v104.31a8 8 0 0 1-3 6.25L401-6.05c-5.72 4.58-9 11.42-9 18.74V221h-16v16h40c17.65 0 32-14.35 32-32v-360H176zm168 352h16v48h-16v-48zm-80 0h16v48h-16v-48zm-48-16h-24v-16h16v-16h-16v-16h24v48zm0-64h-24v-16h24v16zm0-32h-24V69h24v16zm0-32h-24V37h24v16zm-8 168c-8.82 0-16-7.18-16-16v-8h24v24h-8zm4.99-214.56a7.979 7.979 0 0 1 3.01 6.25V21h-24v-31.35l20.99 16.79zm198.01 0l21-16.79V21h-24v-8.31a8 8 0 0 1 3-6.25zM432 69v16h-24V37h24v16h-16v16h16zm-24 80v-16h24v16h-24zm24 16v16h-24v-16h24zm-24-48v-16h24v16h-24zm8 104h-8v-24h24v8c0 8.82-7.18 16-16 16zM32-155h16v72H32z" fill="#0B2154"/><path class="st1" d="M104-155h16v72h-16zM256-83h16v16h-16zM352-83h16v16h-16zM304-83h16v16h-16zM312 149c30.88 0 56-25.12 56-56s-25.12-56-56-56-56 25.12-56 56 25.12 56 56 56zm40-56c0 13.02-6.34 24.49-16 31.79V61.2c9.66 7.31 16 18.78 16 31.8zm-32-39.19v78.38c-2.58.53-5.26.81-8 .81s-5.42-.28-8-.81V53.81c2.58-.53 5.26-.81 8-.81s5.42.28 8 .81zm-32 7.4v63.59c-9.66-7.31-16-18.78-16-31.79s6.34-24.5 16-31.8zM248 5h16v16h-16zM280 5h16v16h-16zM360 5h16v16h-16zM328 5h16v16h-16z" fill="#0B2154"/><path class="st0" d="M35.22 20.54C23.82 18.32 16 7.66 16-3.94V-91h48v88c0 14.8-13.46 26.51-28.78 23.54zM107.22 20.54C95.82 18.32 88 7.66 88-3.94V-91h48v88c0 14.8-13.46 26.51-28.78 23.54z" fill="#D81324"/></g></svg>