<svg version="1.1" id="Layer_1" xmlns="http://www.w3.org/2000/svg" x="0" y="0" viewBox="-16 -155 496 496" xml:space="preserve"><g class="nc-icon-wrapper"><path class="st0" d="M16-27h184v144H16V-27zM312 117.95l-3.57-1.79C266.21 95.05 240 52.63 240 5.45V-30.1l28.12 9.39c11.93 3.97 25.5.78 34.41-8.14l9.46-9.46 9.46 9.46c8.92 8.91 22.47 12.13 34.42 8.13L384-30.11V5.44c0 47.18-26.21 89.61-68.43 110.71l-3.57 1.8z" fill="#D81324"/><path class="st1" d="M312 72.31l-29.66-29.66 11.31-11.31L312 49.69l98.34-98.34 11.31 11.31L312 72.31zM256 245h88v16h-88v-16z" fill="#0B2154"/><path class="st1" d="M304 325H0V-43h96v-96h208v108.69l8-8 8 8V-155H84.69L-16-54.31V341h336v-89h-16v73zM11.31-59L80-127.69V-59H11.31z" fill="#0B2154"/><path class="st1" d="M459.39 171.12l-35.49-5.07c-2.15-.3-4.11-1.5-5.38-3.26l-26.45-37.03c-7.48-10.5-19.65-16.75-32.55-16.75h-102.4c-13.41 0-25.85 6.66-33.28 17.82l-19.3 28.95c-1.03 1.54-2.57 2.7-4.35 3.22l-63.08 18.92c-10.24 3.06-17.11 12.3-17.11 22.98V237c0 13.23 10.77 24 24 24h48v-16h-48c-4.41 0-8-3.59-8-8v-36.1c0-3.56 2.3-6.64 5.7-7.66l63.08-18.92c5.34-1.6 9.98-5.04 13.07-9.68l19.3-28.95A23.943 23.943 0 0 1 257.13 125h102.41c7.74 0 15.03 3.76 19.53 10.05l26.46 37.04c3.8 5.31 9.68 8.88 16.14 9.8l35.49 5.07c3.9.54 6.86 3.95 6.86 7.9V237c0 4.41-3.59 8-8 8h-48v16h48c13.23 0 24-10.77 24-24v-42.13c-.02-11.86-8.88-22.07-20.63-23.75z" fill="#0B2154"/><path class="st1" d="M251.05 141l-24 48h161.89l-24-48H251.05zm1.9 32l8-16h94.11l8 16H252.95zM192-91h16v16h-16v-16zM224-91h16v16h-16v-16zM160-91h16v16h-16v-16zM16-27h184v16H16v-16zM16 37h184v16H16V37z" fill="#0B2154"/><path class="st0" d="M224 293c-22.05 0-40-17.95-40-40s17.95-40 40-40 40 17.95 40 40-17.95 40-40 40z" fill="#D81324"/><path class="st1" d="M216 245h16v16h-16v-16z" fill="#0B2154"/><path class="st0" d="M376 293c-22.05 0-40-17.95-40-40s17.95-40 40-40 40 17.95 40 40-17.95 40-40 40z" fill="#D81324"/><path class="st1" d="M368 245h16v16h-16v-16zM128 5h72v16h-72V5zM16 5h96v16H16V5zM16 69h184v16H16V69zM16 101h184v16H16v-16zM160 309h-16c-12.22 0-17.48-12.02-21.32-20.8-1.46-3.35-4.89-11.2-6.66-11.2-1.76 0-5.19 7.85-6.66 11.2-3.84 8.78-9.09 20.8-21.33 20.8-12.23 0-17.5-12.02-21.34-20.79-1.46-3.36-4.9-11.21-6.68-11.21s-5.21 7.85-6.68 11.21C49.5 296.98 44.23 309 32 309H16v-16h16c1.78 0 5.21-7.85 6.68-11.21 3.85-8.78 9.11-20.79 21.34-20.79s17.5 12.02 21.34 20.79c1.47 3.36 4.91 11.21 6.69 11.21 1.76 0 5.19-7.85 6.66-11.2 3.83-8.79 9.09-20.8 21.32-20.8s17.49 12.02 21.32 20.8c1.46 3.35 4.89 11.2 6.65 11.2h16v16zM176 293h16v16h-16v-16zM288-43H112v-80h176v80zM128-59h144v-48H128v48z" fill="#0B2154"/></g></svg>