<svg version="1.1" id="Layer_1" xmlns="http://www.w3.org/2000/svg" x="0" y="0" viewBox="-16 -155 496 496" xml:space="preserve"><g class="nc-icon-wrapper"><path class="st0" d="M363.89 93H280v32l88 16-3.79-47.05c-.11-.32-.2-.64-.32-.95zM80 285c-30.88 0-56-25.12-56-56s25.12-56 56-56 56 25.12 56 56-25.12 56-56 56z" fill="#D81324"/><path class="st1" d="M80 133c-52.94 0-96 43.06-96 96s43.06 96 96 96 96-43.06 96-96-43.06-96-96-96zm46.67 160.84l-7.74-13.41-13.86 8 7.76 13.45c-7.72 3.5-16.05 5.85-24.83 6.72V293H72v15.59c-8.79-.88-17.11-3.23-24.83-6.72l7.76-13.45-13.86-8-7.74 13.41a80.738 80.738 0 0 1-18.17-18.17l13.41-7.74-8-13.86-13.45 7.76C3.63 254.1 1.27 245.77.4 236.99H16v-16H.41c.88-8.79 3.23-17.11 6.72-24.83l13.45 7.76 8-13.86-13.41-7.74a80.738 80.738 0 0 1 18.17-18.17l7.74 13.41 13.86-8-7.76-13.45c7.72-3.5 16.05-5.85 24.83-6.72V165h16v-15.59c8.79.88 17.12 3.23 24.83 6.72l-7.76 13.45 13.86 8 7.74-13.41a80.738 80.738 0 0 1 18.17 18.17l-13.41 7.74 8 13.86 13.45-7.76c3.5 7.72 5.85 16.05 6.72 24.83H144v16h15.59c-.88 8.79-3.23 17.11-6.72 24.83l-13.45-7.76-8 13.86 13.41 7.74a80.65 80.65 0 0 1-18.16 18.16z" fill="#0B2154"/><path class="st2" d="M80 189c-22.05 0-40 17.95-40 40s17.95 40 40 40 40-17.95 40-40-17.95-40-40-40zm0 64c-13.23 0-24-10.77-24-24s10.77-24 24-24 24 10.77 24 24-10.77 24-24 24z" fill="#FFF"/><path class="st2" d="M72 221h16v16H72v-16z" fill="#FFF"/><path class="st1" d="M478.89 78.7l-15.2-76.04c-4.13-20.66-19.38-36.76-38.7-42.88C434.21-48.98 440-61.31 440-75v-32c0-26.47-21.53-48-48-48s-48 21.53-48 48h-24v16h24v16c0 20.71 13.21 38.34 31.63 45.06l-72.46 72.46-73.16-11.7-27.86-62.7 39.18-63.3C258.31-122.62 287.73-139 320-139v-16c-37.86 0-72.35 19.21-92.28 51.41L158.2 8.7 40.02-103.27C26.2-116.36 10.04-123-8-123h-8v290.81l13.86-14.95C19 130.07 48.94 117 80 117c61.76 0 112 50.24 112 112v24h174.24l-5.13 25.69c-.11.57-.5 1.07-1.01 1.32l-22.22 11.11c-6.09 3.05-9.88 9.18-9.88 15.99 0 9.86 8.02 17.89 17.89 17.89H464c8.82 0 16-7.18 16-16V89.83c0-3.74-.37-7.49-1.11-11.13zM379.36 269l3.53-17.63c5.37-2.6 9.11-8.09 9.11-14.61l-2.43-79.95c0-9.53-5.46-17.82-13.57-21.66V116.8c8.95-.29 17.84-1.05 26.63-2.31 8.84 43.5 13.37 87.92 13.37 132.27V269h-36.64zm39.03-157.32c15.3-3.27 30.3-7.99 44.88-14.24l.73-.3V269h-32v-22.24c0-45.3-4.62-90.66-13.61-135.08zM448 5.8l14.88 74.41-5.91 2.54c-26.28 11.27-54.02 17.3-82.51 18.1a71.66 71.66 0 0 0-13.55-29.43l62.12-62.13C428.82 3.5 432-4.18 432-12.38c0-2.53-.39-4.95-.98-7.3C439.53-13.81 445.86-4.89 448 5.8zm-88 109.77v15.84l-72-13.09V101h70.11c1.23 4.66 1.89 9.54 1.89 14.57zm56-127.95c0 3.85-1.56 7.61-4.29 10.34L349.79 59.9c-7.85-6.44-17.14-11.25-27.43-13.94l68.67-68.68c2.77-2.76 6.44-4.28 10.34-4.28 8.07 0 14.63 6.56 14.63 14.62zM392-139c17.65 0 32 14.35 32 32h-64c0-17.65 14.35-32 32-32zm-32 64v-16h64v16c0 17.65-14.35 32-32 32s-32-14.35-32-32zM191.95-15.41l19.21 43.21-39.46-6.31-1.64-1.55 21.89-35.35zM29.01-91.66L147.92 21h-25.26L93.26-1.06 15.03-79.28C10.74-83.57 5.63-86.73 0-88.7v-17.7c10.66 1.62 20.38 6.57 29.01 14.74zM16 9c0 1.37.21 2.68.41 4H0v-83.95c1.31.88 2.57 1.84 3.71 2.98L52.69-19H44C28.56-19 16-6.44 16 9zM44-3h24.69l13.66 13.66L96.08 21H44c-6.62 0-12-5.38-12-12S37.38-3 44-3zM0 129.1V29h24.46c5.05 4.94 11.93 8 19.54 8h67.81c-.87 22.48-5.46 44.43-13.63 65.44-5.96-.85-12-1.44-18.18-1.44-29.16 0-57.44 10.07-80 28.1zm114.05-23.36c8.29-22.1 12.91-45.15 13.76-68.74h39.56l145.48 23.27c16.22 2.59 29.8 11.84 38.16 24.73H272v46.68l94.79 17.22c3.93.61 6.78 3.93 6.79 8.15l.97 31.95H201.51c-13.33-40.39-46.24-71.86-87.46-83.26zM205.66 205h169.36l.98 32H208v-8c0-8.21-.85-16.21-2.34-24zM344 307.11c0-.72.4-1.37 1.04-1.69l22.22-11.11c3.96-1.98 6.9-5.3 8.51-9.31h30.34l-12.23 6.12c-6.09 3.05-9.87 9.18-9.87 15.99V309H345.9c-1.05 0-1.9-.85-1.9-1.89zm56 1.89v-1.89c0-.72.4-1.37 1.04-1.69l21.08-10.54c4.18-2.09 7.14-5.68 8.68-9.88H464v24h-64z" fill="#0B2154"/></g></svg>