<svg version="1.1" id="Layer_1" xmlns="http://www.w3.org/2000/svg" x="0" y="0" viewBox="-16 -155 496 496" xml:space="preserve"><g class="nc-icon-wrapper"><path class="st0" d="M386.61 5H77.39l31.6-110.59c2.93-10.25 12.41-17.41 23.08-17.41h199.86c10.66 0 20.15 7.16 23.08 17.41L386.61 5zM80 117c-22.05 0-40-17.95-40-40s17.95-40 40-40 40 17.95 40 40-17.95 40-40 40zM384 117c-22.05 0-40-17.95-40-40s17.95-40 40-40 40 17.95 40 40-17.95 40-40 40z" fill="#D81324"/><path class="st1" d="M48 133h64v16H48v-16zM352 133h64v16h-64v-16z" fill="#0B2154"/><path class="st1" d="M432 5c26.47 0 48-21.53 48-48 0-8.82-7.18-16-16-16h-61.25l-16.82-56.1c-7.16-23.86-28.72-39.9-53.64-39.9H131.71c-24.92 0-46.48 16.04-53.64 39.91L61.25-59H0c-8.82 0-16 7.18-16 16C-16-16.53 5.53 5 32 5h10.05l-1.02 3.39C20.92 24.54 8 49.27 8 77v80c0 13.23 10.77 24 24 24h16v24c0 13.23 10.77 24 24 24h48c13.23 0 24-10.77 24-24v-24h176v24c0 13.23 10.77 24 24 24h48c13.23 0 24-10.77 24-24v-24h16c13.23 0 24-10.77 24-24V77c0-27.73-12.92-52.46-33.03-68.61L421.95 5H432zm32-48c0 17.65-14.35 32-32 32h-14.85l-9.6-32H464zM93.4-110.5c5.11-17.05 20.51-28.5 38.31-28.5h200.58c17.8 0 33.19 11.46 38.31 28.5L402.57-3.9A87.397 87.397 0 0 0 368-11H96c-12.27 0-23.95 2.54-34.57 7.1L93.4-110.5zM160 165h-16v-24c0-10.41 6.71-19.21 16-22.53V165zm16-48h16v48h-16v-48zm32 0h16v48h-16v-48zM256 5h16v32h-16V5zm-16 32h-92.22c-9.15 0-17.37-5.08-21.46-13.27L116.95 5H240v32zm64-32v32h-16V5h16zm-32 48v48h-16V53h16zm-32 64h16v48h-16v-48zm32 0h16v48h-16v-48zm32 1.47c9.29 3.31 16 12.11 16 22.53v24h-16v-46.53zM296 101h-8V53h16v48.81c-2.59-.53-5.27-.81-8-.81zm24-96h27.05l-9.37 18.73c-3.52 7.04-10.09 11.76-17.69 12.95V5zM32-11C14.35-11 0-25.35 0-43h56.45l-9.6 32H32zm-8 168V77C24 37.3 56.3 5 96 5h3.05L112 30.89C118.82 44.53 132.53 53 147.78 53H240v48h-72c-22.05 0-40 17.95-40 40v24H32c-4.41 0-8-3.59-8-8zm104 48c0 4.41-3.59 8-8 8H72c-4.41 0-8-3.59-8-8v-24h64v24zm272 0c0 4.41-3.59 8-8 8h-48c-4.41 0-8-3.59-8-8v-24h64v24zm40-128v80c0 4.41-3.59 8-8 8h-96v-24c0-13.02-6.34-24.49-16-31.79V52.74c13.7-1.28 25.75-9.35 32-21.85L364.95 5H368c39.7 0 72 32.3 72 72z" fill="#0B2154"/><path class="st1" d="M250.34-40.65l48-48 11.31 11.31-48 48-11.31-11.31zM202.34-40.65l48-48 11.31 11.31-48 48-11.31-11.31zM154.34-40.66l48-48 11.32 11.31-48 48-11.32-11.31z" fill="#0B2154"/></g></svg>